<svg width="304" height="304" viewBox="0 0 304 304" fill="none" xmlns="http://www.w3.org/2000/svg">
<path d="M152.839 131.673V55.6729L101.839 164.173H143.339L142.839 243.673L168.339 187.673L193.839 131.673H152.839Z" fill="#F9D57A"/>
<path d="M17.9971 158.673C21.2404 226.072 74.6502 280.367 141.839 285.306V303.347C64.8617 298.347 3.50736 236.048 0 158.673H17.9971ZM303.678 158.673C300.17 236.048 238.816 298.347 161.839 303.347V285.306C229.028 280.367 282.437 226.072 285.681 158.673H303.678ZM54.4404 185.673C67.348 223.014 101.23 250.569 142 254.251V265.251C95.2313 261.253 56.5219 229.021 42.9951 185.673H54.4404ZM260.683 185.673C247.187 228.922 208.624 261.105 162 265.224V254.123C202.179 249.971 235.47 222.61 248.237 185.673H260.683ZM230.839 115.673C236.362 115.673 240.839 120.15 240.839 125.673V129.673H262.339C265.376 129.673 267.839 132.135 267.839 135.173C267.839 138.21 265.376 140.673 262.339 140.673H240.839V158.673H262.339C265.376 158.673 267.839 161.135 267.839 164.173C267.839 167.21 265.376 169.673 262.339 169.673H240.839V174.673C240.839 180.196 236.362 184.673 230.839 184.673H213.839C211.63 184.673 209.839 182.882 209.839 180.673V119.673C209.839 117.464 211.63 115.673 213.839 115.673H230.839ZM60.8389 127.673C73.5414 127.673 83.8389 137.97 83.8389 150.673C83.8389 163.375 73.5414 173.673 60.8389 173.673C49.8536 173.673 40.6688 165.971 38.3857 155.673H20.8389V144.673H38.6309C41.2701 134.88 50.2122 127.673 60.8389 127.673ZM60.8389 138.673C54.2115 138.673 48.8389 144.045 48.8389 150.673C48.8389 157.3 54.2115 162.673 60.8389 162.673C67.4663 162.673 72.8389 157.3 72.8389 150.673C72.8389 144.045 67.4663 138.673 60.8389 138.673ZM224.839 144.673C221.525 144.673 218.839 147.359 218.839 150.673C218.839 153.987 221.525 156.673 224.839 156.673C228.153 156.673 230.839 153.987 230.839 150.673C230.839 147.359 228.153 144.673 224.839 144.673ZM141.839 19.04C77.3302 23.7814 25.524 74.021 18.623 137.673H0.476562C7.24367 63.57 67.1972 4.84777 141.839 0V19.04ZM161.839 0C236.481 4.84777 296.434 63.57 303.201 137.673H285.055C278.154 74.021 226.347 23.7814 161.839 19.04V0ZM142 50.0918C102.699 53.6414 69.7984 79.3755 55.916 114.673H43.9795C58.3253 72.8436 96.3172 42.0001 142 38.0947V50.0918ZM162 38.1201C207.539 42.1425 245.386 72.9419 259.698 114.673H246.762C233.035 79.7721 200.715 54.2227 162 50.2217V38.1201Z" fill="#F9D57A"/>
</svg>
