<svg width="986" height="304" viewBox="0 0 986 304" fill="none" xmlns="http://www.w3.org/2000/svg">
<path d="M149.339 135.173H188.399L165.153 186.223L146.441 227.313L146.839 164.195L146.861 160.673H107.352L149.339 71.3477V135.173Z" fill="black" stroke="white" stroke-width="7"/>
<path d="M17.9971 158.673C21.2404 226.072 74.6502 280.367 141.839 285.306V303.347C64.8617 298.347 3.50736 236.048 0 158.673H17.9971ZM303.678 158.673C300.17 236.048 238.816 298.347 161.839 303.347V285.306C229.028 280.367 282.437 226.072 285.681 158.673H303.678ZM54.4404 185.673C67.348 223.014 101.23 250.569 142 254.251V265.251C95.2313 261.253 56.5219 229.021 42.9951 185.673H54.4404ZM260.683 185.673C247.187 228.922 208.624 261.105 162 265.224V254.123C202.179 249.971 235.47 222.61 248.237 185.673H260.683ZM230.839 115.673C236.362 115.673 240.839 120.15 240.839 125.673V129.673H262.339C265.376 129.673 267.839 132.135 267.839 135.173C267.839 138.21 265.376 140.673 262.339 140.673H240.839V158.673H262.339C265.376 158.673 267.839 161.135 267.839 164.173C267.839 167.21 265.376 169.673 262.339 169.673H240.839V174.673C240.839 180.196 236.362 184.673 230.839 184.673H213.839C211.63 184.673 209.839 182.882 209.839 180.673V119.673C209.839 117.464 211.63 115.673 213.839 115.673H230.839ZM60.8389 127.673C73.5414 127.673 83.8389 137.97 83.8389 150.673C83.8389 163.375 73.5414 173.673 60.8389 173.673C49.8536 173.673 40.6688 165.971 38.3857 155.673H20.8389V144.673H38.6309C41.2701 134.88 50.2122 127.673 60.8389 127.673ZM60.8389 138.673C54.2115 138.673 48.8389 144.045 48.8389 150.673C48.8389 157.3 54.2115 162.673 60.8389 162.673C67.4663 162.673 72.8389 157.3 72.8389 150.673C72.8389 144.045 67.4663 138.673 60.8389 138.673ZM224.839 144.673C221.525 144.673 218.839 147.359 218.839 150.673C218.839 153.987 221.525 156.673 224.839 156.673C228.153 156.673 230.839 153.987 230.839 150.673C230.839 147.359 228.153 144.673 224.839 144.673ZM141.839 19.04C77.3302 23.7814 25.524 74.021 18.623 137.673H0.476562C7.24367 63.57 67.1972 4.84777 141.839 0V19.04ZM161.839 0C236.481 4.84777 296.434 63.57 303.201 137.673H285.055C278.154 74.021 226.347 23.7814 161.839 19.04V0ZM142 50.0918C102.699 53.6414 69.7984 79.3755 55.916 114.673H43.9795C58.3253 72.8436 96.3172 42.0001 142 38.0947V50.0918ZM162 38.1201C207.539 42.1425 245.386 72.9419 259.698 114.673H246.762C233.035 79.7721 200.715 54.2227 162 50.2217V38.1201Z" fill="white"/>
<mask id="path-3-outside-1_13_38" maskUnits="userSpaceOnUse" x="333" y="95" width="653" height="111" fill="black">
<rect fill="white" x="333" y="95" width="653" height="111"/>
<path d="M377.037 204.8C368.637 204.8 360.587 203.7 352.887 201.5C345.187 199.2 338.987 196.25 334.287 192.65L342.537 174.35C347.037 177.55 352.337 180.2 358.437 182.3C364.637 184.3 370.887 185.3 377.187 185.3C381.987 185.3 385.837 184.85 388.737 183.95C391.737 182.95 393.937 181.6 395.337 179.9C396.737 178.2 397.437 176.25 397.437 174.05C397.437 171.25 396.337 169.05 394.137 167.45C391.937 165.75 389.037 164.4 385.437 163.4C381.837 162.3 377.837 161.3 373.437 160.4C369.137 159.4 364.787 158.2 360.387 156.8C356.087 155.4 352.137 153.6 348.537 151.4C344.937 149.2 341.987 146.3 339.687 142.7C337.487 139.1 336.387 134.5 336.387 128.9C336.387 122.9 337.987 117.45 341.187 112.55C344.487 107.55 349.387 103.6 355.887 100.7C362.487 97.7 370.737 96.2 380.637 96.2C387.237 96.2 393.737 97 400.137 98.6C406.537 100.1 412.187 102.4 417.087 105.5L409.587 123.95C404.687 121.15 399.787 119.1 394.887 117.8C389.987 116.4 385.187 115.7 380.487 115.7C375.787 115.7 371.937 116.25 368.937 117.35C365.937 118.45 363.787 119.9 362.487 121.7C361.187 123.4 360.537 125.4 360.537 127.7C360.537 130.4 361.637 132.6 363.837 134.3C366.037 135.9 368.937 137.2 372.537 138.2C376.137 139.2 380.087 140.2 384.387 141.2C388.787 142.2 393.137 143.35 397.437 144.65C401.837 145.95 405.837 147.7 409.437 149.9C413.037 152.1 415.937 155 418.137 158.6C420.437 162.2 421.587 166.75 421.587 172.25C421.587 178.15 419.937 183.55 416.637 188.45C413.337 193.35 408.387 197.3 401.787 200.3C395.287 203.3 387.037 204.8 377.037 204.8ZM460.594 203V160.1L466.144 174.8L419.944 98H445.744L481.144 156.95H466.294L501.844 98H525.694L479.494 174.8L484.894 160.1V203H460.594ZM533.482 203V98H553.582L615.532 173.6H605.782V98H629.782V203H609.832L547.732 127.4H557.482V203H533.482ZM704.125 204.8C695.825 204.8 688.125 203.45 681.025 200.75C674.025 198.05 667.925 194.25 662.725 189.35C657.625 184.45 653.625 178.7 650.725 172.1C647.925 165.5 646.525 158.3 646.525 150.5C646.525 142.7 647.925 135.5 650.725 128.9C653.625 122.3 657.675 116.55 662.875 111.65C668.075 106.75 674.175 102.95 681.175 100.25C688.175 97.55 695.775 96.2 703.975 96.2C712.275 96.2 719.875 97.55 726.775 100.25C733.775 102.95 739.825 106.75 744.925 111.65C750.125 116.55 754.175 122.3 757.075 128.9C759.975 135.4 761.425 142.6 761.425 150.5C761.425 158.3 759.975 165.55 757.075 172.25C754.175 178.85 750.125 184.6 744.925 189.5C739.825 194.3 733.775 198.05 726.775 200.75C719.875 203.45 712.325 204.8 704.125 204.8ZM703.975 184.1C708.675 184.1 712.975 183.3 716.875 181.7C720.875 180.1 724.375 177.8 727.375 174.8C730.375 171.8 732.675 168.25 734.275 164.15C735.975 160.05 736.825 155.5 736.825 150.5C736.825 145.5 735.975 140.95 734.275 136.85C732.675 132.75 730.375 129.2 727.375 126.2C724.475 123.2 721.025 120.9 717.025 119.3C713.025 117.7 708.675 116.9 703.975 116.9C699.275 116.9 694.925 117.7 690.925 119.3C687.025 120.9 683.575 123.2 680.575 126.2C677.575 129.2 675.225 132.75 673.525 136.85C671.925 140.95 671.125 145.5 671.125 150.5C671.125 155.4 671.925 159.95 673.525 164.15C675.225 168.25 677.525 171.8 680.425 174.8C683.425 177.8 686.925 180.1 690.925 181.7C694.925 183.3 699.275 184.1 703.975 184.1ZM806.318 203L761.018 98H787.268L826.868 191H811.418L851.618 98H875.768L830.318 203H806.318ZM865.719 203L912.519 98H936.519L983.469 203H957.969L919.569 110.3H929.169L890.619 203H865.719ZM889.119 180.5L895.569 162.05H949.569L956.169 180.5H889.119Z"/>
</mask>
<path d="M377.037 204.8C368.637 204.8 360.587 203.7 352.887 201.5C345.187 199.2 338.987 196.25 334.287 192.65L342.537 174.35C347.037 177.55 352.337 180.2 358.437 182.3C364.637 184.3 370.887 185.3 377.187 185.3C381.987 185.3 385.837 184.85 388.737 183.95C391.737 182.95 393.937 181.6 395.337 179.9C396.737 178.2 397.437 176.25 397.437 174.05C397.437 171.25 396.337 169.05 394.137 167.45C391.937 165.75 389.037 164.4 385.437 163.4C381.837 162.3 377.837 161.3 373.437 160.4C369.137 159.4 364.787 158.2 360.387 156.8C356.087 155.4 352.137 153.6 348.537 151.4C344.937 149.2 341.987 146.3 339.687 142.7C337.487 139.1 336.387 134.5 336.387 128.9C336.387 122.9 337.987 117.45 341.187 112.55C344.487 107.55 349.387 103.6 355.887 100.7C362.487 97.7 370.737 96.2 380.637 96.2C387.237 96.2 393.737 97 400.137 98.6C406.537 100.1 412.187 102.4 417.087 105.5L409.587 123.95C404.687 121.15 399.787 119.1 394.887 117.8C389.987 116.4 385.187 115.7 380.487 115.7C375.787 115.7 371.937 116.25 368.937 117.35C365.937 118.45 363.787 119.9 362.487 121.7C361.187 123.4 360.537 125.4 360.537 127.7C360.537 130.4 361.637 132.6 363.837 134.3C366.037 135.9 368.937 137.2 372.537 138.2C376.137 139.2 380.087 140.2 384.387 141.2C388.787 142.2 393.137 143.35 397.437 144.65C401.837 145.95 405.837 147.7 409.437 149.9C413.037 152.1 415.937 155 418.137 158.6C420.437 162.2 421.587 166.75 421.587 172.25C421.587 178.15 419.937 183.55 416.637 188.45C413.337 193.35 408.387 197.3 401.787 200.3C395.287 203.3 387.037 204.8 377.037 204.8ZM460.594 203V160.1L466.144 174.8L419.944 98H445.744L481.144 156.95H466.294L501.844 98H525.694L479.494 174.8L484.894 160.1V203H460.594ZM533.482 203V98H553.582L615.532 173.6H605.782V98H629.782V203H609.832L547.732 127.4H557.482V203H533.482ZM704.125 204.8C695.825 204.8 688.125 203.45 681.025 200.75C674.025 198.05 667.925 194.25 662.725 189.35C657.625 184.45 653.625 178.7 650.725 172.1C647.925 165.5 646.525 158.3 646.525 150.5C646.525 142.7 647.925 135.5 650.725 128.9C653.625 122.3 657.675 116.55 662.875 111.65C668.075 106.75 674.175 102.95 681.175 100.25C688.175 97.55 695.775 96.2 703.975 96.2C712.275 96.2 719.875 97.55 726.775 100.25C733.775 102.95 739.825 106.75 744.925 111.65C750.125 116.55 754.175 122.3 757.075 128.9C759.975 135.4 761.425 142.6 761.425 150.5C761.425 158.3 759.975 165.55 757.075 172.25C754.175 178.85 750.125 184.6 744.925 189.5C739.825 194.3 733.775 198.05 726.775 200.75C719.875 203.45 712.325 204.8 704.125 204.8ZM703.975 184.1C708.675 184.1 712.975 183.3 716.875 181.7C720.875 180.1 724.375 177.8 727.375 174.8C730.375 171.8 732.675 168.25 734.275 164.15C735.975 160.05 736.825 155.5 736.825 150.5C736.825 145.5 735.975 140.95 734.275 136.85C732.675 132.75 730.375 129.2 727.375 126.2C724.475 123.2 721.025 120.9 717.025 119.3C713.025 117.7 708.675 116.9 703.975 116.9C699.275 116.9 694.925 117.7 690.925 119.3C687.025 120.9 683.575 123.2 680.575 126.2C677.575 129.2 675.225 132.75 673.525 136.85C671.925 140.95 671.125 145.5 671.125 150.5C671.125 155.4 671.925 159.95 673.525 164.15C675.225 168.25 677.525 171.8 680.425 174.8C683.425 177.8 686.925 180.1 690.925 181.7C694.925 183.3 699.275 184.1 703.975 184.1ZM806.318 203L761.018 98H787.268L826.868 191H811.418L851.618 98H875.768L830.318 203H806.318ZM865.719 203L912.519 98H936.519L983.469 203H957.969L919.569 110.3H929.169L890.619 203H865.719ZM889.119 180.5L895.569 162.05H949.569L956.169 180.5H889.119Z" fill="white"/>
<path d="M352.887 201.5L352.601 202.458L352.612 202.462L352.887 201.5ZM334.287 192.65L333.375 192.239L333.049 192.962L333.679 193.444L334.287 192.65ZM342.537 174.35L343.116 173.535L342.125 172.83L341.625 173.939L342.537 174.35ZM358.437 182.3L358.111 183.246L358.121 183.249L358.13 183.252L358.437 182.3ZM388.737 183.95L389.033 184.905L389.043 184.902L389.053 184.899L388.737 183.95ZM395.337 179.9L394.565 179.264V179.264L395.337 179.9ZM394.137 167.45L393.525 168.241L393.537 168.25L393.549 168.259L394.137 167.45ZM385.437 163.4L385.145 164.356L385.157 164.36L385.169 164.364L385.437 163.4ZM373.437 160.4L373.21 161.374L373.223 161.377L373.237 161.38L373.437 160.4ZM360.387 156.8L360.077 157.751L360.084 157.753L360.387 156.8ZM348.537 151.4L348.015 152.253V152.253L348.537 151.4ZM339.687 142.7L338.834 143.221L338.839 143.23L338.844 143.238L339.687 142.7ZM341.187 112.55L340.352 111.999L340.35 112.003L341.187 112.55ZM355.887 100.7L356.294 101.613L356.301 101.61L355.887 100.7ZM400.137 98.6L399.894 99.5701L399.902 99.5719L399.909 99.5736L400.137 98.6ZM417.087 105.5L418.013 105.877L418.328 105.102L417.622 104.655L417.087 105.5ZM409.587 123.95L409.091 124.818L410.083 125.385L410.513 124.327L409.587 123.95ZM394.887 117.8L394.612 118.762L394.621 118.764L394.63 118.767L394.887 117.8ZM368.937 117.35L368.593 116.411V116.411L368.937 117.35ZM362.487 121.7L363.281 122.307L363.29 122.297L363.298 122.285L362.487 121.7ZM363.837 134.3L363.225 135.091L363.237 135.1L363.249 135.109L363.837 134.3ZM372.537 138.2L372.269 139.164V139.164L372.537 138.2ZM384.387 141.2L384.16 142.174L384.165 142.175L384.387 141.2ZM397.437 144.65L397.148 145.607L397.154 145.609L397.437 144.65ZM409.437 149.9L409.958 149.047V149.047L409.437 149.9ZM418.137 158.6L417.284 159.121L417.289 159.13L417.294 159.138L418.137 158.6ZM416.637 188.45L417.466 189.009V189.009L416.637 188.45ZM401.787 200.3L401.373 199.39L401.368 199.392L401.787 200.3ZM377.037 204.8V203.8C368.725 203.8 360.768 202.712 353.162 200.538L352.887 201.5L352.612 202.462C360.406 204.688 368.549 205.8 377.037 205.8V204.8ZM352.887 201.5L353.173 200.542C345.551 198.265 339.471 195.361 334.895 191.856L334.287 192.65L333.679 193.444C338.503 197.139 344.823 200.135 352.601 202.458L352.887 201.5ZM334.287 192.65L335.199 193.061L343.449 174.761L342.537 174.35L341.625 173.939L333.375 192.239L334.287 192.65ZM342.537 174.35L341.957 175.165C346.547 178.429 351.936 181.119 358.111 183.246L358.437 182.3L358.762 181.354C352.738 179.281 347.527 176.671 343.116 173.535L342.537 174.35ZM358.437 182.3L358.13 183.252C364.426 185.283 370.779 186.3 377.187 186.3V185.3V184.3C370.995 184.3 364.848 183.317 358.744 181.348L358.437 182.3ZM377.187 185.3V186.3C382.036 186.3 385.998 185.847 389.033 184.905L388.737 183.95L388.441 182.995C385.675 183.853 381.938 184.3 377.187 184.3V185.3ZM388.737 183.95L389.053 184.899C392.158 183.864 394.548 182.431 396.109 180.536L395.337 179.9L394.565 179.264C393.326 180.769 391.316 182.036 388.421 183.001L388.737 183.95ZM395.337 179.9L396.109 180.536C397.656 178.657 398.437 176.482 398.437 174.05H397.437H396.437C396.437 176.018 395.818 177.743 394.565 179.264L395.337 179.9ZM397.437 174.05H398.437C398.437 170.941 397.193 168.436 394.725 166.641L394.137 167.45L393.549 168.259C395.481 169.664 396.437 171.559 396.437 174.05H397.437ZM394.137 167.45L394.748 166.659C392.417 164.857 389.389 163.46 385.705 162.436L385.437 163.4L385.169 164.364C388.685 165.34 391.456 166.643 393.525 168.241L394.137 167.45ZM385.437 163.4L385.729 162.444C382.094 161.333 378.063 160.325 373.637 159.42L373.437 160.4L373.237 161.38C377.611 162.275 381.58 163.267 385.145 164.356L385.437 163.4ZM373.437 160.4L373.663 159.426C369.39 158.432 365.066 157.239 360.69 155.847L360.387 156.8L360.084 157.753C364.508 159.161 368.883 160.368 373.21 161.374L373.437 160.4ZM360.387 156.8L360.697 155.849C356.465 154.472 352.587 152.703 349.058 150.547L348.537 151.4L348.015 152.253C351.687 154.497 355.708 156.328 360.077 157.751L360.387 156.8ZM348.537 151.4L349.058 150.547C345.59 148.427 342.749 145.635 340.53 142.162L339.687 142.7L338.844 143.238C341.225 146.965 344.284 149.973 348.015 152.253L348.537 151.4ZM339.687 142.7L340.54 142.179C338.463 138.779 337.387 134.375 337.387 128.9H336.387H335.387C335.387 134.625 336.511 139.421 338.834 143.221L339.687 142.7ZM336.387 128.9H337.387C337.387 123.089 338.933 117.83 342.024 113.097L341.187 112.55L340.35 112.003C337.041 117.07 335.387 122.711 335.387 128.9H336.387ZM341.187 112.55L342.022 113.101C345.198 108.288 349.935 104.45 356.294 101.613L355.887 100.7L355.479 99.7868C348.839 102.75 343.776 106.812 340.352 111.999L341.187 112.55ZM355.887 100.7L356.301 101.61C362.732 98.6869 370.831 97.2 380.637 97.2V96.2V95.2C370.643 95.2 362.241 96.7131 355.473 99.7896L355.887 100.7ZM380.637 96.2V97.2C387.155 97.2 393.574 97.99 399.894 99.5701L400.137 98.6L400.379 97.6299C393.9 96.01 387.319 95.2 380.637 95.2V96.2ZM400.137 98.6L399.909 99.5736C406.214 101.052 411.758 103.312 416.552 106.345L417.087 105.5L417.622 104.655C412.616 101.488 406.859 99.1485 400.365 97.6264L400.137 98.6ZM417.087 105.5L416.161 105.123L408.661 123.573L409.587 123.95L410.513 124.327L418.013 105.877L417.087 105.5ZM409.587 123.95L410.083 123.082C405.116 120.244 400.136 118.158 395.143 116.833L394.887 117.8L394.63 118.767C399.438 120.042 404.258 122.056 409.091 124.818L409.587 123.95ZM394.887 117.8L395.162 116.838C390.18 115.415 385.287 114.7 380.487 114.7V115.7V116.7C385.087 116.7 389.794 117.385 394.612 118.762L394.887 117.8ZM380.487 115.7V114.7C375.72 114.7 371.742 115.256 368.593 116.411L368.937 117.35L369.281 118.289C372.132 117.244 375.854 116.7 380.487 116.7V115.7ZM368.937 117.35L368.593 116.411C365.484 117.551 363.134 119.096 361.676 121.115L362.487 121.7L363.298 122.285C364.44 120.704 366.39 119.349 369.281 118.289L368.937 117.35ZM362.487 121.7L361.693 121.093C360.249 122.98 359.537 125.198 359.537 127.7H360.537H361.537C361.537 125.602 362.125 123.82 363.281 122.307L362.487 121.7ZM360.537 127.7H359.537C359.537 130.72 360.789 133.208 363.225 135.091L363.837 134.3L364.448 133.509C362.485 131.991 361.537 130.08 361.537 127.7H360.537ZM363.837 134.3L363.249 135.109C365.574 136.8 368.594 138.143 372.269 139.164L372.537 138.2L372.805 137.236C369.28 136.257 366.5 135 364.425 133.491L363.837 134.3ZM372.537 138.2L372.269 139.164C375.885 140.168 379.849 141.171 384.16 142.174L384.387 141.2L384.613 140.226C380.325 139.229 376.389 138.232 372.805 137.236L372.537 138.2ZM384.387 141.2L384.165 142.175C388.543 143.17 392.87 144.314 397.148 145.607L397.437 144.65L397.726 143.693C393.404 142.386 389.031 141.23 384.609 140.225L384.387 141.2ZM397.437 144.65L397.154 145.609C401.477 146.886 405.396 148.603 408.915 150.753L409.437 149.9L409.958 149.047C406.278 146.797 402.197 145.014 397.72 143.691L397.437 144.65ZM409.437 149.9L408.915 150.753C412.38 152.871 415.166 155.657 417.284 159.121L418.137 158.6L418.99 158.079C416.707 154.343 413.694 151.329 409.958 149.047L409.437 149.9ZM418.137 158.6L417.294 159.138C419.466 162.537 420.587 166.887 420.587 172.25H421.587H422.587C422.587 166.613 421.408 161.863 418.98 158.062L418.137 158.6ZM421.587 172.25H420.587C420.587 177.951 418.996 183.156 415.807 187.891L416.637 188.45L417.466 189.009C420.877 183.944 422.587 178.349 422.587 172.25H421.587ZM416.637 188.45L415.807 187.891C412.632 192.606 407.843 196.449 401.373 199.39L401.787 200.3L402.201 201.21C408.931 198.151 414.042 194.094 417.466 189.009L416.637 188.45ZM401.787 200.3L401.368 199.392C395.041 202.312 386.946 203.8 377.037 203.8V204.8V205.8C387.128 205.8 395.533 204.288 402.206 201.208L401.787 200.3ZM460.594 203H459.594V204H460.594V203ZM460.594 160.1L461.529 159.747L459.594 160.1H460.594ZM466.144 174.8L465.287 175.315L467.079 174.447L466.144 174.8ZM419.944 98V97H418.175L419.087 98.5155L419.944 98ZM445.744 98L446.601 97.4852L446.31 97H445.744V98ZM481.144 156.95V157.95H482.911L482.001 156.435L481.144 156.95ZM466.294 156.95L465.438 156.434L464.523 157.95H466.294V156.95ZM501.844 98V97H501.279L500.988 97.4836L501.844 98ZM525.694 98L526.551 98.5155L527.463 97H525.694V98ZM479.494 174.8L478.555 174.455L480.351 175.315L479.494 174.8ZM484.894 160.1H485.894L483.955 159.755L484.894 160.1ZM484.894 203V204H485.894V203H484.894ZM460.594 203H461.594V160.1H460.594H459.594V203H460.594ZM460.594 160.1L459.658 160.453L465.208 175.153L466.144 174.8L467.079 174.447L461.529 159.747L460.594 160.1ZM466.144 174.8L467.001 174.285L420.801 97.4845L419.944 98L419.087 98.5155L465.287 175.315L466.144 174.8ZM419.944 98V99H445.744V98V97H419.944V98ZM445.744 98L444.887 98.5148L480.287 157.465L481.144 156.95L482.001 156.435L446.601 97.4852L445.744 98ZM481.144 156.95V155.95H466.294V156.95V157.95H481.144V156.95ZM466.294 156.95L467.15 157.466L502.7 98.5164L501.844 98L500.988 97.4836L465.438 156.434L466.294 156.95ZM501.844 98V99H525.694V98V97H501.844V98ZM525.694 98L524.837 97.4845L478.637 174.285L479.494 174.8L480.351 175.315L526.551 98.5155L525.694 98ZM479.494 174.8L480.433 175.145L485.833 160.445L484.894 160.1L483.955 159.755L478.555 174.455L479.494 174.8ZM484.894 160.1H483.894V203H484.894H485.894V160.1H484.894ZM484.894 203V202H460.594V203V204H484.894V203ZM533.482 203H532.482V204H533.482V203ZM533.482 98V97H532.482V98H533.482ZM553.582 98L554.356 97.3662L554.056 97H553.582V98ZM615.532 173.6V174.6H617.645L616.306 172.966L615.532 173.6ZM605.782 173.6H604.782V174.6H605.782V173.6ZM605.782 98V97H604.782V98H605.782ZM629.782 98H630.782V97H629.782V98ZM629.782 203V204H630.782V203H629.782ZM609.832 203L609.06 203.635L609.36 204H609.832V203ZM547.732 127.4V126.4H545.617L546.96 128.035L547.732 127.4ZM557.482 127.4H558.482V126.4H557.482V127.4ZM557.482 203V204H558.482V203H557.482ZM533.482 203H534.482V98H533.482H532.482V203H533.482ZM533.482 98V99H553.582V98V97H533.482V98ZM553.582 98L552.809 98.6338L614.759 174.234L615.532 173.6L616.306 172.966L554.356 97.3662L553.582 98ZM615.532 173.6V172.6H605.782V173.6V174.6H615.532V173.6ZM605.782 173.6H606.782V98H605.782H604.782V173.6H605.782ZM605.782 98V99H629.782V98V97H605.782V98ZM629.782 98H628.782V203H629.782H630.782V98H629.782ZM629.782 203V202H609.832V203V204H629.782V203ZM609.832 203L610.605 202.365L548.505 126.765L547.732 127.4L546.96 128.035L609.06 203.635L609.832 203ZM547.732 127.4V128.4H557.482V127.4V126.4H547.732V127.4ZM557.482 127.4H556.482V203H557.482H558.482V127.4H557.482ZM557.482 203V202H533.482V203V204H557.482V203ZM681.025 200.75L680.665 201.683L680.669 201.685L681.025 200.75ZM662.725 189.35L662.032 190.071L662.039 190.078L662.725 189.35ZM650.725 172.1L649.804 172.491L649.809 172.502L650.725 172.1ZM650.725 128.9L649.809 128.498L649.804 128.509L650.725 128.9ZM681.175 100.25L680.815 99.317V99.317L681.175 100.25ZM726.775 100.25L726.41 101.181L726.415 101.183L726.775 100.25ZM744.925 111.65L744.232 112.371L744.239 112.378L744.925 111.65ZM757.075 128.9L756.159 129.302L756.162 129.307L757.075 128.9ZM757.075 172.25L757.99 172.652L757.993 172.647L757.075 172.25ZM744.925 189.5L745.61 190.228L745.611 190.228L744.925 189.5ZM726.775 200.75L726.415 199.817L726.41 199.819L726.775 200.75ZM716.875 181.7L716.503 180.771L716.495 180.775L716.875 181.7ZM727.375 174.8L726.668 174.093V174.093L727.375 174.8ZM734.275 164.15L733.351 163.767L733.347 163.777L733.343 163.786L734.275 164.15ZM734.275 136.85L733.343 137.214L733.347 137.223L733.351 137.233L734.275 136.85ZM727.375 126.2L726.656 126.895L726.662 126.901L726.668 126.907L727.375 126.2ZM717.025 119.3L716.653 120.228V120.228L717.025 119.3ZM690.925 119.3L690.553 118.371L690.545 118.375L690.925 119.3ZM680.575 126.2L681.282 126.907V126.907L680.575 126.2ZM673.525 136.85L672.601 136.467L672.597 136.477L672.593 136.486L673.525 136.85ZM673.525 164.15L672.59 164.506L672.595 164.52L672.601 164.533L673.525 164.15ZM680.425 174.8L679.706 175.495L679.712 175.501L679.718 175.507L680.425 174.8ZM690.925 181.7L690.553 182.628V182.628L690.925 181.7ZM704.125 204.8V203.8C695.935 203.8 688.357 202.468 681.38 199.815L681.025 200.75L680.669 201.685C687.893 204.432 695.715 205.8 704.125 205.8V204.8ZM681.025 200.75L681.385 199.817C674.499 197.161 668.512 193.429 663.411 188.622L662.725 189.35L662.039 190.078C667.338 195.071 673.55 198.939 680.665 201.683L681.025 200.75ZM662.725 189.35L663.418 188.629C658.414 183.821 654.489 178.18 651.64 171.698L650.725 172.1L649.809 172.502C652.761 179.22 656.836 185.079 662.032 190.071L662.725 189.35ZM650.725 172.1L651.645 171.709C648.902 165.243 647.525 158.178 647.525 150.5H646.525H645.525C645.525 158.422 646.947 165.757 649.804 172.491L650.725 172.1ZM646.525 150.5H647.525C647.525 142.822 648.902 135.757 651.645 129.291L650.725 128.9L649.804 128.509C646.947 135.243 645.525 142.578 645.525 150.5H646.525ZM650.725 128.9L651.64 129.302C654.487 122.824 658.459 117.185 663.561 112.378L662.875 111.65L662.189 110.922C656.89 115.915 652.763 121.776 649.809 128.498L650.725 128.9ZM662.875 111.65L663.561 112.378C668.662 107.571 674.649 103.839 681.535 101.183L681.175 100.25L680.815 99.317C673.7 102.061 667.488 105.929 662.189 110.922L662.875 111.65ZM681.175 100.25L681.535 101.183C688.41 98.5312 695.886 97.2 703.975 97.2V96.2V95.2C695.663 95.2 687.94 96.5688 680.815 99.317L681.175 100.25ZM703.975 96.2V97.2C712.165 97.2 719.64 98.5318 726.41 101.181L726.775 100.25L727.139 99.3187C720.11 96.5682 712.385 95.2 703.975 95.2V96.2ZM726.775 100.25L726.415 101.183C733.299 103.838 739.234 107.569 744.232 112.371L744.925 111.65L745.618 110.929C740.416 105.931 734.251 102.062 727.135 99.317L726.775 100.25ZM744.925 111.65L744.239 112.378C749.34 117.185 753.313 122.824 756.159 129.302L757.075 128.9L757.99 128.498C755.037 121.776 750.909 115.915 745.611 110.922L744.925 111.65ZM757.075 128.9L756.162 129.307C758.998 135.666 760.425 142.725 760.425 150.5H761.425H762.425C762.425 142.475 760.951 135.134 757.988 128.493L757.075 128.9ZM761.425 150.5H760.425C760.425 158.173 758.999 165.287 756.157 171.853L757.075 172.25L757.993 172.647C760.95 165.813 762.425 158.427 762.425 150.5H761.425ZM757.075 172.25L756.159 171.848C753.313 178.326 749.34 183.965 744.239 188.772L744.925 189.5L745.611 190.228C750.909 185.235 755.037 179.374 757.99 172.652L757.075 172.25ZM744.925 189.5L744.239 188.772C739.24 193.477 733.303 197.16 726.415 199.817L726.775 200.75L727.135 201.683C734.247 198.94 740.409 195.123 745.61 190.228L744.925 189.5ZM726.775 200.75L726.41 199.819C719.638 202.469 712.213 203.8 704.125 203.8V204.8V205.8C712.436 205.8 720.111 204.431 727.139 201.681L726.775 200.75ZM703.975 184.1V185.1C708.79 185.1 713.221 184.28 717.254 182.625L716.875 181.7L716.495 180.775C712.729 182.32 708.56 183.1 703.975 183.1V184.1ZM716.875 181.7L717.246 182.628C721.37 180.979 724.985 178.604 728.082 175.507L727.375 174.8L726.668 174.093C723.765 176.996 720.38 179.221 716.503 180.772L716.875 181.7ZM727.375 174.8L728.082 175.507C731.183 172.406 733.558 168.737 735.206 164.514L734.275 164.15L733.343 163.786C731.792 167.763 729.566 171.194 726.668 174.093L727.375 174.8ZM734.275 164.15L735.199 164.533C736.955 160.297 737.825 155.615 737.825 150.5H736.825H735.825C735.825 155.385 734.995 159.803 733.351 163.767L734.275 164.15ZM736.825 150.5H737.825C737.825 145.385 736.955 140.703 735.199 136.467L734.275 136.85L733.351 137.233C734.995 141.197 735.825 145.615 735.825 150.5H736.825ZM734.275 136.85L735.206 136.486C733.558 132.263 731.183 128.594 728.082 125.493L727.375 126.2L726.668 126.907C729.566 129.806 731.792 133.237 733.343 137.214L734.275 136.85ZM727.375 126.2L728.094 125.505C725.092 122.4 721.523 120.022 717.396 118.372L717.025 119.3L716.653 120.228C720.527 121.778 723.857 124 726.656 126.895L727.375 126.2ZM717.025 119.3L717.396 118.372C713.268 116.72 708.79 115.9 703.975 115.9V116.9V117.9C708.559 117.9 712.782 118.68 716.653 120.228L717.025 119.3ZM703.975 116.9V115.9C699.159 115.9 694.682 116.72 690.553 118.372L690.925 119.3L691.296 120.228C695.168 118.68 699.39 117.9 703.975 117.9V116.9ZM690.925 119.3L690.545 118.375C686.522 120.025 682.961 122.4 679.868 125.493L680.575 126.2L681.282 126.907C684.189 124 687.528 121.775 691.304 120.225L690.925 119.3ZM680.575 126.2L679.868 125.493C676.771 128.59 674.349 132.251 672.601 136.467L673.525 136.85L674.449 137.233C676.101 133.249 678.379 129.81 681.282 126.907L680.575 126.2ZM673.525 136.85L672.593 136.486C670.942 140.717 670.125 145.392 670.125 150.5H671.125H672.125C672.125 145.608 672.907 141.183 674.456 137.214L673.525 136.85ZM671.125 150.5H670.125C670.125 155.511 670.943 160.182 672.59 164.506L673.525 164.15L674.459 163.794C672.906 159.718 672.125 155.289 672.125 150.5H671.125ZM673.525 164.15L672.601 164.533C674.346 168.741 676.713 172.399 679.706 175.495L680.425 174.8L681.144 174.105C678.336 171.201 676.104 167.759 674.449 163.767L673.525 164.15ZM680.425 174.8L679.718 175.507C682.815 178.604 686.43 180.979 690.553 182.628L690.925 181.7L691.296 180.772C687.42 179.221 684.035 176.996 681.132 174.093L680.425 174.8ZM690.925 181.7L690.553 182.628C694.682 184.28 699.159 185.1 703.975 185.1V184.1V183.1C699.39 183.1 695.168 182.32 691.296 180.772L690.925 181.7ZM806.318 203L805.4 203.396L805.66 204H806.318V203ZM761.018 98V97H759.498L760.1 98.3961L761.018 98ZM787.268 98L788.188 97.6082L787.929 97H787.268V98ZM826.868 191V192H828.381L827.788 190.608L826.868 191ZM811.418 191L810.5 190.603L809.896 192H811.418V191ZM851.618 98V97H850.961L850.7 97.6032L851.618 98ZM875.768 98L876.686 98.3972L877.291 97H875.768V98ZM830.318 203V204H830.975L831.236 203.397L830.318 203ZM806.318 203L807.236 202.604L761.936 97.6039L761.018 98L760.1 98.3961L805.4 203.396L806.318 203ZM761.018 98V99H787.268V98V97H761.018V98ZM787.268 98L786.348 98.3918L825.948 191.392L826.868 191L827.788 190.608L788.188 97.6082L787.268 98ZM826.868 191V190H811.418V191V192H826.868V191ZM811.418 191L812.336 191.397L852.536 98.3968L851.618 98L850.7 97.6032L810.5 190.603L811.418 191ZM851.618 98V99H875.768V98V97H851.618V98ZM875.768 98L874.85 97.6028L829.4 202.603L830.318 203L831.236 203.397L876.686 98.3972L875.768 98ZM830.318 203V202H806.318V203V204H830.318V203ZM865.719 203L864.806 202.593L864.179 204H865.719V203ZM912.519 98V97H911.87L911.606 97.5929L912.519 98ZM936.519 98L937.432 97.5918L937.168 97H936.519V98ZM983.469 203V204H985.012L984.382 202.592L983.469 203ZM957.969 203L957.045 203.383L957.301 204H957.969V203ZM919.569 110.3V109.3H918.073L918.645 110.683L919.569 110.3ZM929.169 110.3L930.093 110.684L930.668 109.3H929.169V110.3ZM890.619 203V204H891.286L891.543 203.384L890.619 203ZM889.119 180.5L888.175 180.17L887.71 181.5H889.119V180.5ZM895.569 162.05V161.05H894.86L894.625 161.72L895.569 162.05ZM949.569 162.05L950.511 161.713L950.274 161.05H949.569V162.05ZM956.169 180.5V181.5H957.589L957.111 180.163L956.169 180.5ZM865.719 203L866.633 203.407L913.433 98.4071L912.519 98L911.606 97.5929L864.806 202.593L865.719 203ZM912.519 98V99H936.519V98V97H912.519V98ZM936.519 98L935.606 98.4082L982.556 203.408L983.469 203L984.382 202.592L937.432 97.5918L936.519 98ZM983.469 203V202H957.969V203V204H983.469V203ZM957.969 203L958.893 202.617L920.493 109.917L919.569 110.3L918.645 110.683L957.045 203.383L957.969 203ZM919.569 110.3V111.3H929.169V110.3V109.3H919.569V110.3ZM929.169 110.3L928.246 109.916L889.696 202.616L890.619 203L891.543 203.384L930.093 110.684L929.169 110.3ZM890.619 203V202H865.719V203V204H890.619V203ZM889.119 180.5L890.063 180.83L896.513 162.38L895.569 162.05L894.625 161.72L888.175 180.17L889.119 180.5ZM895.569 162.05V163.05H949.569V162.05V161.05H895.569V162.05ZM949.569 162.05L948.628 162.387L955.228 180.837L956.169 180.5L957.111 180.163L950.511 161.713L949.569 162.05ZM956.169 180.5V179.5H889.119V180.5V181.5H956.169V180.5Z" fill="#033472" mask="url(#path-3-outside-1_13_38)"/>
</svg>
