<svg width="477" height="411" viewBox="0 0 477 411" fill="none" xmlns="http://www.w3.org/2000/svg">
<path d="M233.762 135.173H272.822L249.576 186.223L230.864 227.313L231.262 164.195L231.284 160.673H191.774L233.762 71.3477V135.173Z" fill="#17C9D3" stroke="url(#paint0_linear_10_484)" stroke-width="7"/>
<path d="M102.42 158.673C105.663 226.072 159.073 280.367 226.262 285.306V303.347C149.285 298.347 87.9303 236.048 84.4229 158.673H102.42ZM388.101 158.673C384.593 236.048 323.239 298.347 246.262 303.347V285.306C313.45 280.367 366.86 226.072 370.104 158.673H388.101ZM138.863 185.673C151.771 223.014 185.653 250.569 226.423 254.251V265.251C179.654 261.253 140.945 229.021 127.418 185.673H138.863ZM345.106 185.673C331.61 228.922 293.047 261.105 246.423 265.224V254.123C286.602 249.971 319.893 222.61 332.66 185.673H345.106ZM315.262 115.673C320.785 115.673 325.262 120.15 325.262 125.673V129.673H346.762C349.799 129.673 352.262 132.135 352.262 135.173C352.262 138.21 349.799 140.673 346.762 140.673H325.262V158.673H346.762C349.799 158.673 352.262 161.135 352.262 164.173C352.262 167.21 349.799 169.673 346.762 169.673H325.262V174.673C325.262 180.196 320.785 184.673 315.262 184.673H298.262C296.053 184.673 294.262 182.882 294.262 180.673V119.673C294.262 117.464 296.053 115.673 298.262 115.673H315.262ZM145.262 127.673C157.964 127.673 168.262 137.97 168.262 150.673C168.262 163.375 157.964 173.673 145.262 173.673C134.277 173.673 125.092 165.971 122.809 155.673H105.262V144.673H123.054C125.693 134.88 134.635 127.673 145.262 127.673ZM145.262 138.673C138.634 138.673 133.262 144.045 133.262 150.673C133.262 157.3 138.634 162.673 145.262 162.673C151.889 162.673 157.262 157.3 157.262 150.673C157.262 144.045 151.889 138.673 145.262 138.673ZM309.262 144.673C305.948 144.673 303.262 147.359 303.262 150.673C303.262 153.987 305.948 156.673 309.262 156.673C312.576 156.673 315.262 153.987 315.262 150.673C315.262 147.359 312.576 144.673 309.262 144.673ZM226.262 19.04C161.753 23.7814 109.947 74.021 103.046 137.673H84.8995C91.6666 63.57 151.62 4.84777 226.262 0V19.04ZM246.262 0C320.904 4.84777 380.857 63.57 387.624 137.673H369.478C362.577 74.021 310.77 23.7814 246.262 19.04V0ZM226.423 50.0918C187.122 53.6414 154.221 79.3755 140.339 114.673H128.402C142.748 72.8436 180.74 42.0001 226.423 38.0947V50.0918ZM246.423 38.1201C291.962 42.1425 329.809 72.9419 344.121 114.673H331.185C317.458 79.7721 285.138 54.2227 246.423 50.2217V38.1201Z" fill="url(#paint1_linear_10_484)"/>
<path d="M31.35 410.32C25.19 410.32 19.2867 409.513 13.64 407.9C7.99333 406.213 3.44667 404.05 -1.73599e-06 401.41L6.05 387.99C9.35 390.337 13.2367 392.28 17.71 393.82C22.2567 395.287 26.84 396.02 31.46 396.02C34.98 396.02 37.8033 395.69 39.93 395.03C42.13 394.297 43.7433 393.307 44.77 392.06C45.7967 390.813 46.31 389.383 46.31 387.77C46.31 385.717 45.5033 384.103 43.89 382.93C42.2767 381.683 40.15 380.693 37.51 379.96C34.87 379.153 31.9367 378.42 28.71 377.76C25.5567 377.027 22.3667 376.147 19.14 375.12C15.9867 374.093 13.09 372.773 10.45 371.16C7.81 369.547 5.64667 367.42 3.96 364.78C2.34667 362.14 1.54 358.767 1.54 354.66C1.54 350.26 2.71333 346.263 5.06 342.67C7.48 339.003 11.0733 336.107 15.84 333.98C20.68 331.78 26.73 330.68 33.99 330.68C38.83 330.68 43.5967 331.267 48.29 332.44C52.9833 333.54 57.1267 335.227 60.72 337.5L55.22 351.03C51.6267 348.977 48.0333 347.473 44.44 346.52C40.8467 345.493 37.3267 344.98 33.88 344.98C30.4333 344.98 27.61 345.383 25.41 346.19C23.21 346.997 21.6333 348.06 20.68 349.38C19.7267 350.627 19.25 352.093 19.25 353.78C19.25 355.76 20.0567 357.373 21.67 358.62C23.2833 359.793 25.41 360.747 28.05 361.48C30.69 362.213 33.5867 362.947 36.74 363.68C39.9667 364.413 43.1567 365.257 46.31 366.21C49.5367 367.163 52.47 368.447 55.11 370.06C57.75 371.673 59.8767 373.8 61.49 376.44C63.1767 379.08 64.02 382.417 64.02 386.45C64.02 390.777 62.81 394.737 60.39 398.33C57.97 401.923 54.34 404.82 49.5 407.02C44.7333 409.22 38.6833 410.32 31.35 410.32ZM92.6252 409V377.54L96.6952 388.32L62.8152 332H81.7352L107.695 375.23H96.8052L122.875 332H140.365L106.485 388.32L110.445 377.54V409H92.6252ZM146.077 409V332H160.817L206.247 387.44H199.097V332H216.697V409H202.067L156.527 353.56H163.677V409H146.077ZM271.214 410.32C265.128 410.32 259.481 409.33 254.274 407.35C249.141 405.37 244.668 402.583 240.854 398.99C237.114 395.397 234.181 391.18 232.054 386.34C230.001 381.5 228.974 376.22 228.974 370.5C228.974 364.78 230.001 359.5 232.054 354.66C234.181 349.82 237.151 345.603 240.964 342.01C244.778 338.417 249.251 335.63 254.384 333.65C259.518 331.67 265.091 330.68 271.104 330.68C277.191 330.68 282.764 331.67 287.824 333.65C292.958 335.63 297.394 338.417 301.134 342.01C304.948 345.603 307.918 349.82 310.044 354.66C312.171 359.427 313.234 364.707 313.234 370.5C313.234 376.22 312.171 381.537 310.044 386.45C307.918 391.29 304.948 395.507 301.134 399.1C297.394 402.62 292.958 405.37 287.824 407.35C282.764 409.33 277.228 410.32 271.214 410.32ZM271.104 395.14C274.551 395.14 277.704 394.553 280.564 393.38C283.498 392.207 286.064 390.52 288.264 388.32C290.464 386.12 292.151 383.517 293.324 380.51C294.571 377.503 295.194 374.167 295.194 370.5C295.194 366.833 294.571 363.497 293.324 360.49C292.151 357.483 290.464 354.88 288.264 352.68C286.138 350.48 283.608 348.793 280.674 347.62C277.741 346.447 274.551 345.86 271.104 345.86C267.658 345.86 264.468 346.447 261.534 347.62C258.674 348.793 256.144 350.48 253.944 352.68C251.744 354.88 250.021 357.483 248.774 360.49C247.601 363.497 247.014 366.833 247.014 370.5C247.014 374.093 247.601 377.43 248.774 380.51C250.021 383.517 251.708 386.12 253.834 388.32C256.034 390.52 258.601 392.207 261.534 393.38C264.468 394.553 267.658 395.14 271.104 395.14ZM346.156 409L312.936 332H332.186L361.226 400.2H349.896L379.376 332H397.086L363.756 409H346.156ZM389.717 409L424.037 332H441.637L476.067 409H457.367L429.207 341.02H436.247L407.977 409H389.717ZM406.877 392.5L411.607 378.97H451.207L456.047 392.5H406.877Z" fill="url(#paint2_linear_10_484)"/>
<defs>
<linearGradient id="paint0_linear_10_484" x1="232.262" y1="55.6729" x2="232.262" y2="243.673" gradientUnits="userSpaceOnUse">
<stop stop-color="#033472"/>
<stop offset="1" stop-color="#109CB4"/>
</linearGradient>
<linearGradient id="paint1_linear_10_484" x1="236.262" y1="0" x2="236.262" y2="303.347" gradientUnits="userSpaceOnUse">
<stop stop-color="#002B72"/>
<stop offset="1" stop-color="#15CBD8"/>
</linearGradient>
<linearGradient id="paint2_linear_10_484" x1="235.923" y1="303" x2="235.923" y2="442" gradientUnits="userSpaceOnUse">
<stop offset="0.201923" stop-color="#15CBD8"/>
<stop offset="0.629808" stop-color="#002B72"/>
</linearGradient>
</defs>
</svg>
