<svg width="984" height="304" viewBox="0 0 984 304" fill="none" xmlns="http://www.w3.org/2000/svg">
<path d="M149.339 135.173H188.399L165.153 186.223L146.441 227.313L146.839 164.195L146.861 160.673H107.352L149.339 71.3477V135.173Z" fill="#17C9D3" stroke="url(#paint0_linear_12_118)" stroke-width="7"/>
<path d="M17.9971 158.673C21.2404 226.072 74.6502 280.367 141.839 285.306V303.347C64.8617 298.347 3.50736 236.048 0 158.673H17.9971ZM303.678 158.673C300.17 236.048 238.816 298.347 161.839 303.347V285.306C229.028 280.367 282.437 226.072 285.681 158.673H303.678ZM54.4404 185.673C67.348 223.014 101.23 250.569 142 254.251V265.251C95.2313 261.253 56.5219 229.021 42.9951 185.673H54.4404ZM260.683 185.673C247.187 228.922 208.624 261.105 162 265.224V254.123C202.179 249.971 235.47 222.61 248.237 185.673H260.683ZM230.839 115.673C236.362 115.673 240.839 120.15 240.839 125.673V129.673H262.339C265.376 129.673 267.839 132.135 267.839 135.173C267.839 138.21 265.376 140.673 262.339 140.673H240.839V158.673H262.339C265.376 158.673 267.839 161.135 267.839 164.173C267.839 167.21 265.376 169.673 262.339 169.673H240.839V174.673C240.839 180.196 236.362 184.673 230.839 184.673H213.839C211.63 184.673 209.839 182.882 209.839 180.673V119.673C209.839 117.464 211.63 115.673 213.839 115.673H230.839ZM60.8389 127.673C73.5414 127.673 83.8389 137.97 83.8389 150.673C83.8389 163.375 73.5414 173.673 60.8389 173.673C49.8536 173.673 40.6688 165.971 38.3857 155.673H20.8389V144.673H38.6309C41.2701 134.88 50.2122 127.673 60.8389 127.673ZM60.8389 138.673C54.2114 138.673 48.8389 144.045 48.8389 150.673C48.8389 157.3 54.2114 162.673 60.8389 162.673C67.4663 162.673 72.8389 157.3 72.8389 150.673C72.8389 144.045 67.4663 138.673 60.8389 138.673ZM224.839 144.673C221.525 144.673 218.839 147.359 218.839 150.673C218.839 153.987 221.525 156.673 224.839 156.673C228.153 156.673 230.839 153.987 230.839 150.673C230.839 147.359 228.153 144.673 224.839 144.673ZM141.839 19.04C77.3302 23.7814 25.524 74.021 18.623 137.673H0.476562C7.24367 63.57 67.1972 4.84777 141.839 0V19.04ZM161.839 0C236.481 4.84777 296.434 63.57 303.201 137.673H285.055C278.154 74.021 226.347 23.7814 161.839 19.04V0ZM142 50.0918C102.699 53.6414 69.7984 79.3755 55.916 114.673H43.9795C58.3253 72.8436 96.3172 42.0001 142 38.0947V50.0918ZM162 38.1201C207.539 42.1425 245.386 72.9419 259.698 114.673H246.762C233.035 79.7721 200.715 54.2227 162 50.2217V38.1201Z" fill="url(#paint1_linear_12_118)"/>
<path d="M377.037 207.8C368.637 207.8 360.587 206.7 352.887 204.5C345.187 202.2 338.987 199.25 334.287 195.65L342.537 177.35C347.037 180.55 352.337 183.2 358.437 185.3C364.637 187.3 370.887 188.3 377.187 188.3C381.987 188.3 385.837 187.85 388.737 186.95C391.737 185.95 393.937 184.6 395.337 182.9C396.737 181.2 397.437 179.25 397.437 177.05C397.437 174.25 396.337 172.05 394.137 170.45C391.937 168.75 389.037 167.4 385.437 166.4C381.837 165.3 377.837 164.3 373.437 163.4C369.137 162.4 364.787 161.2 360.387 159.8C356.087 158.4 352.137 156.6 348.537 154.4C344.937 152.2 341.987 149.3 339.687 145.7C337.487 142.1 336.387 137.5 336.387 131.9C336.387 125.9 337.987 120.45 341.187 115.55C344.487 110.55 349.387 106.6 355.887 103.7C362.487 100.7 370.737 99.2 380.637 99.2C387.237 99.2 393.737 100 400.137 101.6C406.537 103.1 412.187 105.4 417.087 108.5L409.587 126.95C404.687 124.15 399.787 122.1 394.887 120.8C389.987 119.4 385.187 118.7 380.487 118.7C375.787 118.7 371.937 119.25 368.937 120.35C365.937 121.45 363.787 122.9 362.487 124.7C361.187 126.4 360.537 128.4 360.537 130.7C360.537 133.4 361.637 135.6 363.837 137.3C366.037 138.9 368.937 140.2 372.537 141.2C376.137 142.2 380.087 143.2 384.387 144.2C388.787 145.2 393.137 146.35 397.437 147.65C401.837 148.95 405.837 150.7 409.437 152.9C413.037 155.1 415.937 158 418.137 161.6C420.437 165.2 421.587 169.75 421.587 175.25C421.587 181.15 419.937 186.55 416.637 191.45C413.337 196.35 408.387 200.3 401.787 203.3C395.287 206.3 387.037 207.8 377.037 207.8ZM460.594 206V163.1L466.144 177.8L419.944 101H445.744L481.144 159.95H466.294L501.844 101H525.694L479.494 177.8L484.894 163.1V206H460.594ZM533.482 206V101H553.582L615.532 176.6H605.782V101H629.782V206H609.832L547.732 130.4H557.482V206H533.482ZM704.125 207.8C695.825 207.8 688.125 206.45 681.025 203.75C674.025 201.05 667.925 197.25 662.725 192.35C657.625 187.45 653.625 181.7 650.725 175.1C647.925 168.5 646.525 161.3 646.525 153.5C646.525 145.7 647.925 138.5 650.725 131.9C653.625 125.3 657.675 119.55 662.875 114.65C668.075 109.75 674.175 105.95 681.175 103.25C688.175 100.55 695.775 99.2 703.975 99.2C712.275 99.2 719.875 100.55 726.775 103.25C733.775 105.95 739.825 109.75 744.925 114.65C750.125 119.55 754.175 125.3 757.075 131.9C759.975 138.4 761.425 145.6 761.425 153.5C761.425 161.3 759.975 168.55 757.075 175.25C754.175 181.85 750.125 187.6 744.925 192.5C739.825 197.3 733.775 201.05 726.775 203.75C719.875 206.45 712.325 207.8 704.125 207.8ZM703.975 187.1C708.675 187.1 712.975 186.3 716.875 184.7C720.875 183.1 724.375 180.8 727.375 177.8C730.375 174.8 732.675 171.25 734.275 167.15C735.975 163.05 736.825 158.5 736.825 153.5C736.825 148.5 735.975 143.95 734.275 139.85C732.675 135.75 730.375 132.2 727.375 129.2C724.475 126.2 721.025 123.9 717.025 122.3C713.025 120.7 708.675 119.9 703.975 119.9C699.275 119.9 694.925 120.7 690.925 122.3C687.025 123.9 683.575 126.2 680.575 129.2C677.575 132.2 675.225 135.75 673.525 139.85C671.925 143.95 671.125 148.5 671.125 153.5C671.125 158.4 671.925 162.95 673.525 167.15C675.225 171.25 677.525 174.8 680.425 177.8C683.425 180.8 686.925 183.1 690.925 184.7C694.925 186.3 699.275 187.1 703.975 187.1ZM806.318 206L761.018 101H787.268L826.868 194H811.418L851.618 101H875.768L830.318 206H806.318ZM865.719 206L912.519 101H936.519L983.469 206H957.969L919.569 113.3H929.169L890.619 206H865.719ZM889.119 183.5L895.569 165.05H949.569L956.169 183.5H889.119Z" fill="url(#paint2_linear_12_118)"/>
<defs>
<linearGradient id="paint0_linear_12_118" x1="147.839" y1="55.6729" x2="147.839" y2="243.673" gradientUnits="userSpaceOnUse">
<stop stop-color="#033472"/>
<stop offset="1" stop-color="#109CB4"/>
</linearGradient>
<linearGradient id="paint1_linear_12_118" x1="151.839" y1="0" x2="151.839" y2="303.347" gradientUnits="userSpaceOnUse">
<stop stop-color="#002B72"/>
<stop offset="1" stop-color="#15CBD8"/>
</linearGradient>
<linearGradient id="paint2_linear_12_118" x1="656" y1="61" x2="656" y2="244" gradientUnits="userSpaceOnUse">
<stop offset="0.201923" stop-color="#15CBD8"/>
<stop offset="0.629808" stop-color="#002B72"/>
</linearGradient>
</defs>
</svg>
